<!DOCTYPE svg PUBLIC "-//W3C//DTD SVG 1.1//EN" "http://www.w3.org/Graphics/SVG/1.1/DTD/svg11.dtd" [
	<!ENTITY ns_flows "http://ns.adobe.com/Flows/1.0/">
]><svg xmlns="http://www.w3.org/2000/svg" width="24" height="22" viewBox="0 0 24 22"><path d="M23.244 16H.75c-.413 0-.75.36-.75.802v3.42c0 .425.337.77.75.77h22.494c.414 0 .75-.345.75-.77v-3.42c0-.443-.336-.802-.75-.802zm0-8H.75C.337 8 0 8.36 0 8.8v3.42c0 .425.337.772.75.772h22.494c.414 0 .75-.347.75-.77V8.8c0-.442-.336-.802-.75-.802zm0-8H.75C.337 0 0 .36 0 .8v3.42c0 .424.337.77.75.77h22.494c.414 0 .75-.346.75-.77V.8c0-.44-.336-.8-.75-.8z"/></svg>